#N canvas 164 0 1173 778 12;
#X obj 70 457 oscformat;
#X obj 30 485 oscparse;
#X obj 30 509 route list;
#X msg 17 216 listAll;
#X obj 102 313 list;
#X obj 97 379 list split 4;
#X obj 97 410 list trim;
#X msg 80 210 deleteAll;
#X obj 226 682 netsend -u -b;
#X obj 158 615 list prepend send;
#X obj 159 651 list trim;
#X obj 314 715 oscparse;
#X msg 28 120 connect 192.168.7.2 7562 7563;
#X msg 330 607 disconnect;
#X obj 178 430 list;
#X obj 69 279 t b b a;
#X msg 172 214 createAll 1;
#X obj 103 343 list prepend set trill command;
#X msg 670 285 readI2C mycraft;
#X obj 268 188 tgl 15 0 empty empty empty 17 7 0 10 -262144 -1 -1 0
1;
#X msg 268 215 autoReadAll \$1;
#X obj 315 744 route list;
#X obj 470 622 print response;
#X obj 485 550 route commandreply readings;
#X obj 581 701 print reading;
#X obj 487 521 route trill;
#X obj 30 533 print ================sent;
#X obj 864 273 tgl 15 0 empty empty empty 17 7 0 10 -262144 -1 -1 0
1;
#X text 89 162 Global commands;
#X text 644 151 Create/delete;
#X text 664 120 Instance commands;
#X text 682 265 Read \, once or repeatedly;
#X text 487 594 Responses to commands;
#X text 594 673 Readings;
#X msg 379 223 loopSleep \$1;
#X floatatom 378 195 5 0 0 0 - - -;
#X text 374 172 ms between auto readings;
#X text 650 165 first argument is <id> \, which is to be used in any
other instance command;
#X text 665 337 These are explained at;
#X text 672 352 https://learn.bela.io/products/trill/integrating-trill-into-your-projects/
;
#X msg 652 239 delete mytrill;
#X msg 639 216 new mytrill 1 craft 56;
#X msg 864 294 autoRead mytrill \$1;
#X msg 495 344 updateBaseline mytrill;
#X msg 495 365 setMode mytrill RAW;
#X msg 497 387 setScanSettings mytrill 0 12;
#X msg 497 410 setPrescaler mytrill 4;
#X msg 498 430 setNoiseThreshold mytrill 0.0625;
#X obj 691 652 print other;
#X text 644 193 new <id> <i2cBus> <deviceType> <address(opt)>;
#X text 21 14 Trill + OSC + Puredata example;
#X text 25 94 Adjust IP and ports as needed:;
#X text 299 10 Note: if you are on Bela \, it is more efficient to
use the;
#X text 298 22 Trill/*-pd examples instead;
#X text 17 61 Start the trill-osc program and make sure it is;
#X text 18 75 listening on port 7562;
#X connect 0 0 1 0;
#X connect 0 0 9 0;
#X connect 1 0 2 0;
#X connect 2 0 26 0;
#X connect 3 0 15 0;
#X connect 4 0 17 0;
#X connect 5 0 6 0;
#X connect 5 1 14 1;
#X connect 6 0 0 0;
#X connect 7 0 15 0;
#X connect 8 1 11 0;
#X connect 9 0 10 0;
#X connect 10 0 8 0;
#X connect 11 0 21 0;
#X connect 12 0 8 0;
#X connect 13 0 8 0;
#X connect 14 0 0 0;
#X connect 15 1 14 0;
#X connect 15 2 4 0;
#X connect 16 0 15 0;
#X connect 17 0 5 0;
#X connect 18 0 15 0;
#X connect 19 0 20 0;
#X connect 20 0 15 0;
#X connect 21 0 25 0;
#X connect 21 1 48 0;
#X connect 23 0 22 0;
#X connect 23 1 24 0;
#X connect 23 2 48 0;
#X connect 25 0 23 0;
#X connect 25 1 48 0;
#X connect 27 0 42 0;
#X connect 34 0 15 0;
#X connect 35 0 34 0;
#X connect 40 0 15 0;
#X connect 41 0 15 0;
#X connect 42 0 15 0;
#X connect 43 0 15 0;
#X connect 44 0 15 0;
#X connect 45 0 15 0;
#X connect 46 0 15 0;
#X connect 47 0 15 0;
